<svg xmlns="http://www.w3.org/2000/svg" xml:space="preserve" fill-rule="evenodd" stroke-linejoin="round" stroke-miterlimit="2" clip-rule="evenodd" viewBox="0 0 64 64">
  <g id="white">
    <path fill="#f3f4f4" d="M62 2v9.997h-2.502V4.502h-7.495V2H62ZM39.505 59.498h9.997V62h-9.997v-2.502Zm-12.508 0h10.006V62H26.997v-2.502Zm-12.499 0h10.007V62H14.498v-2.502ZM2 39.505h2.502v9.997H2v-9.997ZM2 62v-9.997h2.502v7.495h7.505V62H2Zm57.498-35.003H62v9.996h-2.502v-9.996ZM2 26.997h2.502v9.996H2v-9.996Zm60 24.996v9.997h-9.997v-2.502h7.495v-7.495H62Zm-2.502-37.495H62v9.997h-2.502v-9.997Zm0 25.007H62v9.997h-2.502v-9.997ZM4.502 4.502v7.495H2V2h9.997v2.502H4.502ZM26.997 2h10.006v2.502H26.997V2ZM14.498 2h10.007v2.502H14.498V2Zm25.007 0h9.997v2.502h-9.997V2ZM2 14.498h2.502v9.997H2v-9.997Z"/>
  </g>
  <g id="grey">
    <path fill="#acabab" d="M34.547 32.631h.011c4.136.006 7.474 3.392 7.474 7.563v8.614a29.41 29.41 0 0 1-20.274 0v-8.614c0-4.175 3.355-7.563 7.496-7.563h5.293Zm3.51-8.681c0 .41-.033.808-.122 1.207a7.062 7.062 0 0 1-.343 1.163 5.601 5.601 0 0 1-.576 1.074 6.216 6.216 0 0 1-1.694 1.716 5.458 5.458 0 0 1-1.063.576 6.58 6.58 0 0 1-1.152.354 6.24 6.24 0 0 1-1.207.122 5.33 5.33 0 0 1-1.196-.122 7.198 7.198 0 0 1-1.151-.354 5.43 5.43 0 0 1-1.063-.576 6.876 6.876 0 0 1-.93-.775 6.156 6.156 0 0 1-1.329-2.015 7 7 0 0 1-.354-1.163 6.336 6.336 0 0 1-.122-1.207c0-.398.044-.808.122-1.207.077-.398.199-.786.354-1.162.155-.377.343-.742.565-1.074a6.84 6.84 0 0 1 .764-.942c.288-.287.598-.542.93-.775.332-.232.686-.42 1.063-.575a6.657 6.657 0 0 1 1.151-.355 6.312 6.312 0 0 1 1.196-.122c.399 0 .809.034 1.207.122.399.078.775.2 1.152.355.376.155.731.343 1.063.575a6.27 6.27 0 0 1 1.694 1.717c.232.332.41.697.576 1.074.155.376.265.764.343 1.162.077.399.122.809.122 1.207Zm11.847 3.698v-.011c4.142 0 7.497 3.389 7.497 7.563v8.615a29.484 29.484 0 0 1-13.863 1.561v-5.204a9.075 9.075 0 0 0-5.614-8.382c1.229-2.459 3.765-4.142 6.677-4.142h5.303Zm3.488-8.681c0 .41-.033.809-.121 1.207-.078.399-.2.787-.344 1.163a5.943 5.943 0 0 1-.575 1.074 6.277 6.277 0 0 1-.764.941 6.823 6.823 0 0 1-.931.775c-.332.222-.697.41-1.063.576a5.103 5.103 0 0 1-1.151.354 6.223 6.223 0 0 1-1.196.122 5.39 5.39 0 0 1-1.196-.122 6.14 6.14 0 0 1-2.214-.93 6.755 6.755 0 0 1-.93-.775 5.666 5.666 0 0 1-.764-.941 6.59 6.59 0 0 1-.565-1.074 6.972 6.972 0 0 1-.354-1.163 6.328 6.328 0 0 1-.122-1.207c0-.398.044-.808.122-1.206.077-.399.199-.787.354-1.163a6.156 6.156 0 0 1 1.329-2.015c.287-.288.597-.543.93-.775.332-.222.686-.41 1.063-.576a6.228 6.228 0 0 1 1.151-.354 6.223 6.223 0 0 1 1.196-.122c.399 0 .808.033 1.196.122.399.077.786.199 1.151.354.366.155.731.343 1.063.576.333.232.643.487.931.775.287.288.542.598.764.941.221.343.409.697.575 1.074.155.376.266.764.344 1.163.077.398.121.808.121 1.206ZM25.888 31.801h-.011a9.07 9.07 0 0 0-5.603 8.382v5.204c-4.65.598-9.401.088-13.863-1.561v-8.615c0-4.174 3.355-7.551 7.496-7.551h5.304c2.912 0 5.448 1.683 6.677 4.141ZM22.71 18.967c0 .41-.033.809-.111 1.207a6.073 6.073 0 0 1-.354 1.163 5.886 5.886 0 0 1-.576 1.074 6.156 6.156 0 0 1-.764.941 6.876 6.876 0 0 1-.93.775c-.332.222-.686.41-1.063.576a5.753 5.753 0 0 1-1.151.354 6.255 6.255 0 0 1-1.207.122c-.41 0-.798-.033-1.196-.122a5.99 5.99 0 0 1-1.152-.354 5.458 5.458 0 0 1-1.063-.576 6.876 6.876 0 0 1-.93-.775 5.717 5.717 0 0 1-.764-.941 6.668 6.668 0 0 1-.565-1.074 7.067 7.067 0 0 1-.354-1.163 6.394 6.394 0 0 1-.111-1.207c0-.398.034-.808.111-1.206.078-.399.199-.787.354-1.163.155-.377.344-.731.565-1.074.233-.332.476-.653.764-.941.288-.288.598-.543.93-.775.332-.222.687-.41 1.063-.576a5.762 5.762 0 0 1 1.152-.354 6.215 6.215 0 0 1 1.196-.122c.398 0 .808.033 1.207.122.398.077.775.199 1.151.354a5.43 5.43 0 0 1 1.063.576c.332.232.642.487.93.775.288.288.543.598.764.941.233.343.41.697.576 1.074.155.376.266.764.354 1.163.078.398.111.808.111 1.206Z"/>
  </g>
</svg>
