<svg xmlns="http://www.w3.org/2000/svg" xml:space="preserve" fill-rule="evenodd" stroke-linejoin="round" stroke-miterlimit="2" clip-rule="evenodd" viewBox="0 0 64 64">
  <g id="grey">
    <path fill="#b5b5b5" fill-rule="nonzero" d="M28.969 44.203h3.956v-.914c0-4.604 5.651-4.4 5.651-9.986 0-3.824-2.535-6.765-7.274-6.765-4.637 0-7.883 2.941-7.883 8.051h3.956c0-2.708 1.425-4.299 3.927-4.299 2.132 0 3.319 1.287 3.319 3.013 0 3.859-5.652 3.622-5.652 9.952v.948Zm1.995 6.833c1.522 0 2.705-1.15 2.705-2.638 0-1.454-1.183-2.638-2.705-2.638-1.556 0-2.705 1.184-2.705 2.638 0 1.488 1.149 2.638 2.705 2.638Z"/>
  </g>
  <g id="white">
    <path fill="#f3f4f4" fill-rule="nonzero" d="M1.993 46.87s9.705-2.207 10.163-5.244c.437-2.9-2.367-10.303-2.163-12.67.449-5.254 3.603-8.353 6.852-9.806 7.614-3.394 16.112-6.68 19.438-6.124 4.438.742 8.802 8.558 8.802 8.558l3.77 4.924c1.798 1.756 3.497 1.551 5.142.256l-3.331-5.913 11.341 4.111-2.398 12.41-3.194-5.344c-3.295 1.824-6.589 1.986-9.884.301-2.965-2.391-5.366-5.347-7.416-8.654 0 0-2.335-3.655-4.694-3.876-2.186-.202-10.126 3.328-16.512 6.149-3.826 1.692 2.093 14.307.196 18.488-1.897 4.181-11.578 6.6-11.578 6.6L1.993 46.87Z"/>
  </g>
</svg>
