<?xml version="1.0" encoding="UTF-8" standalone="no"?>
<!DOCTYPE svg PUBLIC "-//W3C//DTD SVG 1.1//EN" "http://www.w3.org/Graphics/SVG/1.1/DTD/svg11.dtd">
<svg width="100%" height="100%" viewBox="0 0 64 64" version="1.1" xmlns="http://www.w3.org/2000/svg" xmlns:xlink="http://www.w3.org/1999/xlink" xml:space="preserve" xmlns:serif="http://www.serif.com/" style="fill-rule:evenodd;clip-rule:evenodd;stroke-linejoin:round;stroke-miterlimit:2;">
    <g id="surface1">
        <path d="M28.969,44.203L32.925,44.203L32.925,43.289C32.925,38.685 38.576,38.889 38.576,33.303C38.576,29.479 36.041,26.538 31.302,26.538C26.665,26.538 23.419,29.479 23.419,34.589L27.375,34.589C27.375,31.881 28.8,30.29 31.302,30.29C33.434,30.29 34.621,31.577 34.621,33.303C34.621,37.162 28.969,36.925 28.969,43.255L28.969,44.203ZM30.964,51.036C32.486,51.036 33.669,49.886 33.669,48.398C33.669,46.944 32.486,45.76 30.964,45.76C29.408,45.76 28.259,46.944 28.259,48.398C28.259,49.886 29.408,51.036 30.964,51.036Z" style="fill:#b5b5b5;fill-rule:nonzero;"/>
        <path d="M1.993,46.87C1.993,46.87 11.698,44.663 12.156,41.626C12.593,38.726 9.789,31.323 9.993,28.956C10.442,23.702 13.596,20.603 16.845,19.15C24.459,15.756 32.957,12.47 36.283,13.026C40.721,13.768 45.085,21.584 45.085,21.584L48.855,26.508C50.653,28.264 52.352,28.059 53.997,26.764L50.666,20.851L62.007,24.962L59.609,37.372L56.415,32.028C53.12,33.852 49.826,34.014 46.531,32.329C43.566,29.938 41.165,26.982 39.115,23.675C39.115,23.675 36.78,20.02 34.421,19.799C32.235,19.597 24.295,23.127 17.909,25.948C14.083,27.64 20.002,40.255 18.105,44.436C16.208,48.617 6.527,51.036 6.527,51.036L1.993,46.87Z" style="fill:#f3f4f4;fill-rule:nonzero;"/>
    </g>
</svg>
