<svg xmlns="http://www.w3.org/2000/svg" xml:space="preserve" fill-rule="evenodd" stroke-linejoin="round" stroke-miterlimit="2" clip-rule="evenodd" viewBox="0 0 64 64">
  <g id="white">
    <path fill="#f3f4f4" d="M44.268 12.266c-.036.004-.076.01-.107.017-.216.05-.455.149-.724.282-1.387.69-3.281 2.191-5.836 4.385a1.5 1.5 0 0 1-1.954-2.276c3.339-2.868 5.723-4.609 7.314-5.161 1.14-.396 2.046-.301 2.749.08.689.373 1.271 1.074 1.591 2.248.453 1.666.395 4.689-.049 9.22a1.502 1.502 0 0 1-1.64 1.346 1.502 1.502 0 0 1-1.346-1.64c.343-3.489.483-5.983.254-7.567a3.859 3.859 0 0 0-.188-.802 1.446 1.446 0 0 0-.064-.132Zm-24.434 0a1.212 1.212 0 0 0-.063.132c-.085.22-.143.488-.189.802-.229 1.584-.088 4.078.255 7.567a1.501 1.501 0 0 1-2.986.294c-.445-4.531-.503-7.554-.049-9.22.319-1.174.901-1.875 1.59-2.248.703-.381 1.609-.476 2.749-.08 1.591.552 3.975 2.293 7.314 5.161a1.5 1.5 0 0 1-1.954 2.276c-2.555-2.194-4.449-3.695-5.836-4.385a3.454 3.454 0 0 0-.724-.282 1.044 1.044 0 0 0-.107-.017ZM7.82 30.83a.99.99 0 0 0 .083.121c.148.183.35.368.6.564 1.257.991 3.487 2.116 6.68 3.564a1.5 1.5 0 0 1-1.238 2.732c-4.147-1.88-6.794-3.342-8.009-4.567-.857-.864-1.173-1.718-1.152-2.501.022-.8.392-1.632 1.305-2.421 1.275-1.102 3.974-2.295 8.127-3.753a1.5 1.5 0 1 1 .994 2.83c-3.177 1.116-5.424 2.006-6.715 2.862-.25.165-.455.323-.607.485a1.547 1.547 0 0 0-.068.084Zm11.825 20.908c.047-.001.103-.004.146-.011.232-.037.493-.12.789-.238 1.486-.594 3.575-1.962 6.426-4.004a1.501 1.501 0 0 1 1.746 2.44c-3.701 2.65-6.29 4.212-7.959 4.652-1.176.31-2.074.156-2.742-.254-.682-.418-1.217-1.155-1.444-2.341-.317-1.654-.001-4.588.813-8.914a1.5 1.5 0 0 1 2.948.554c-.622 3.31-.975 5.701-.879 7.247.019.299.053.555.117.768.01.03.025.068.039.101Zm36.535-20.14a1.172 1.172 0 0 0-.083-.121 3.778 3.778 0 0 0-.6-.564c-1.257-.99-3.487-2.115-6.68-3.563a1.5 1.5 0 0 1 1.238-2.732c4.147 1.88 6.794 3.341 8.009 4.567.857.863 1.173 1.718 1.152 2.501-.022.799-.392 1.631-1.305 2.421-1.275 1.101-3.974 2.295-8.127 3.753a1.5 1.5 0 1 1-.994-2.83c3.177-1.116 5.424-2.006 6.715-2.862.25-.166.455-.323.607-.486a1.03 1.03 0 0 0 .068-.084ZM44.268 51.734c.022-.041.048-.092.064-.132.084-.22.142-.488.188-.802.229-1.584.089-4.078-.254-7.567a1.502 1.502 0 0 1 1.346-1.64 1.502 1.502 0 0 1 1.64 1.346c.444 4.531.502 7.554.049 9.22-.32 1.174-.902 1.875-1.591 2.248-.703.381-1.609.476-2.749.08-1.591-.552-3.975-2.293-7.314-5.161a1.5 1.5 0 0 1 1.954-2.276c2.555 2.194 4.449 3.695 5.836 4.385.269.133.508.232.724.282.031.007.071.013.107.017ZM30.477 15.805l-.141 16.165-14.123 6.92V23.811l14.264-8.006Zm3.001-.032 14.309 7.991V38.91l-14.451-6.941.142-16.196Zm-1.643 18.803 14.028 6.738L32 48.169l-13.89-6.868 13.725-6.725Z"/>
  </g>
  <g id="grey">
    <path fill="#929090" d="M13.213 41.292V22.933a1.5 1.5 0 0 1 .766-1.308l17.267-9.692.02-.011a1.498 1.498 0 0 1 1.465-.002l.033.019 17.254 9.635a1.5 1.5 0 0 1 .769 1.31v18.411a1.501 1.501 0 0 1-.835 1.345l-17.287 8.547a1.502 1.502 0 0 1-1.33 0L14.048 42.64a1.5 1.5 0 0 1-.835-1.345v-.003Zm17.264-25.487-14.264 8.006V38.89l14.123-6.92.141-16.165Zm3.001-.032-.142 16.196 14.451 6.941V23.764l-14.309-7.991Zm12.385 25.541-14.028-6.738-13.725 6.725L32 48.169l13.863-6.855Z"/>
  </g>
</svg>
