<svg xmlns="http://www.w3.org/2000/svg" xml:space="preserve" fill-rule="evenodd" stroke-linejoin="round" stroke-miterlimit="2" clip-rule="evenodd" viewBox="0 0 64 64">
  <g id="white">
    <path fill="#f3f4f4" d="m54.83 23.719 1.598 1.598-3.196 3.196-1.598-1.598 3.196-3.196Zm-5.586 5.586 1.598 1.598-3.196 3.196-1.598-1.598 3.196-3.196Zm-5.586 5.586 1.598 1.598-3.196 3.196-1.598-1.598 3.196-3.196Zm-5.586 5.586 1.598 1.598-3.196 3.197-1.599-1.599 3.197-3.196Zm-5.587 5.587 1.598 1.598-3.196 3.196-1.598-1.598 3.196-3.196Zm-5.586 5.586 1.598 1.598-2.381 2.381-.017.017-.801.798-1.595-1.601.801-.798.014-.014 2.381-2.381Zm-6.707 5.077 1.071-.361.723 2.141-1.071.362c-.787.265-1.592.454-2.403.566l-1.119.155-.31-2.238 1.119-.155c.672-.093 1.338-.25 1.99-.47Zm-7-.051 1.061.389-.778 2.122-1.061-.389a12.163 12.163 0 0 1-2.236-1.091l-.959-.597 1.194-1.918.959.597c.58.36 1.19.656 1.82.887Zm-5.258-4.524.542.992-1.983 1.084-.542-.991a12.212 12.212 0 0 1-.964-2.292l-.33-1.081 2.162-.66.33 1.081c.196.644.458 1.27.785 1.867Zm-1.041-6.903-.212 1.11-2.219-.424.212-1.11c.153-.802.383-1.597.688-2.37l.415-1.051 2.102.83-.415 1.051a11.027 11.027 0 0 0-.571 1.964Zm2.695-5.386L7.99 38.265l3.196-3.196 1.598 1.598-3.196 3.196Zm5.586-5.586-1.598-1.598 3.196-3.196 1.598 1.598-3.196 3.196Zm5.586-5.586-1.598-1.598 3.197-3.197 1.598 1.598-3.197 3.197Zm5.587-5.587-1.598-1.598 3.196-3.196 1.598 1.598-3.196 3.196Zm5.586-5.586-1.598-1.598 3.196-3.196 1.598 1.598-3.196 3.196Zm5.586-5.586-1.598-1.598 1.963-1.963c.158-.159.32-.312.484-.461l.837-.759 1.518 1.673-.836.76c-.138.124-.273.253-.405.385l-1.963 1.963Zm6.801-4.818-1.087.308-.617-2.174 1.087-.308a13.095 13.095 0 0 1 2.428-.448l1.126-.099.198 2.251-1.126.099c-.675.06-1.348.183-2.009.371Zm6.981.406-1.038-.445.889-2.077 1.039.445c.757.324 1.486.727 2.175 1.209l.926.648-1.296 1.852-.926-.649a9.841 9.841 0 0 0-1.769-.983Zm5.007 4.799L55.82 11.3l2.038-.976.488 1.019c.361.753.641 1.536.84 2.339l.273 1.097-2.193.545-.273-1.097a10.039 10.039 0 0 0-.685-1.908Zm.685 6.955.267-1.098 2.196.533-.267 1.098a13.19 13.19 0 0 1-.803 2.333l-.466 1.029-2.059-.931.466-1.03c.284-.628.507-1.276.666-1.934Z"/>
  </g>
  <g id="grey">
    <path fill="#acabab" d="m51.219 19.256.38-.894a4.852 4.852 0 0 0 .389-1.781l.028-1.13 2.259.056-.028 1.13a7.133 7.133 0 0 1-.568 2.609l-.442 1.04-1.367-.581 1.048 1.048-3.196 3.196-1.598-1.598 3.095-3.095Zm-5.485 5.485 1.598 1.598-3.196 3.196-1.598-1.598 3.196-3.196Zm-5.586 5.586 1.598 1.598-3.196 3.196-1.598-1.598 3.196-3.196Zm-5.586 5.586 1.598 1.598-3.196 3.197-1.599-1.599 3.197-3.196Zm-5.587 5.586 1.599 1.599-3.197 3.196-1.598-1.598 3.196-3.197Zm-5.586 5.587 1.598 1.598-3.196 3.196-1.598-1.598 3.196-3.196Zm-6.44 4.878 1.124-.115.23 2.248-1.124.115a6.908 6.908 0 0 1-2.673-.245l-1.083-.321.643-2.167 1.083.321a4.651 4.651 0 0 0 1.8.164Zm-4.786-3.242.289 1.092-2.184.578-.289-1.092a6.933 6.933 0 0 1-.168-2.677l.147-1.121 2.24.294-.146 1.12a4.69 4.69 0 0 0 .111 1.806Zm1.674-5.034-1.598-1.598 3.196-3.196 1.598 1.598-3.196 3.196Zm5.586-5.586-1.598-1.598 3.196-3.196 1.598 1.598-3.196 3.196Zm5.586-5.586-1.598-1.598 3.196-3.196 1.598 1.598-3.196 3.196Zm5.586-5.586-1.598-1.598 3.196-3.196 1.598 1.598-3.196 3.196Zm5.586-5.586-1.598-1.598 3.196-3.197 1.599 1.599-3.197 3.196Zm5.587-5.586-1.599-1.599 2.279-2.278c.047-.047.094-.093.142-.138l.82-.778 1.555 1.64-.82.778a4.415 4.415 0 0 0-.099.096l-2.278 2.279Zm6.597-3.674-1.112-.2.401-2.224 1.112.2a6.68 6.68 0 0 1 2.508 1.003l.942.624-1.248 1.884-.942-.624a4.425 4.425 0 0 0-1.661-.663Z"/>
  </g>
</svg>
