<svg xmlns="http://www.w3.org/2000/svg" xml:space="preserve" fill-rule="evenodd" stroke-linejoin="round" stroke-miterlimit="2" clip-rule="evenodd" viewBox="0 0 64 64">
  <g id="white">
    <path fill="#f3f4f4" d="M56.495 5A2.506 2.506 0 0 1 59 7.505v6.492h-2.252V7.252h-6.745V5h6.492Zm-17.74 51.748h8.997V59h-8.997v-2.252Zm-11.258 0h9.006V59h-9.006v-2.252Zm-11.249 0h9.007V59h-9.007v-2.252ZM5 38.755h2.252v8.997H5v-8.997ZM7.505 59A2.506 2.506 0 0 1 5 56.495v-6.492h2.252v6.745h6.754V59H7.505Zm49.243-31.503H59v8.997h-2.252v-8.997ZM5 27.497h2.252v8.997H5v-8.997Zm54 22.497v6.492a2.506 2.506 0 0 1-2.505 2.505h-6.492v-2.252h6.745v-6.745H59Zm-2.252-33.746H59v8.997h-2.252v-8.997Zm0 22.506H59v8.998h-2.252v-8.998ZM7.252 7.252v6.745H5V7.505A2.506 2.506 0 0 1 7.505 5h6.492v2.252H7.252ZM27.497 5h9.006v2.252h-9.006V5ZM16.248 5h9.006v2.252h-9.006V5Zm22.507 0h8.997v2.252h-8.997V5ZM5 16.248h2.252v8.997H5v-8.997Z"/>
  </g>
  <g id="grey">
    <path fill="#acabab" d="M29.529 32.568h4.773c3.723.005 6.727 3.053 6.727 6.807v7.752a26.478 26.478 0 0 1-18.247 0v-7.752c0-3.758 3.02-6.807 6.747-6.807Zm7.922-7.813c0 .369-.029.727-.11 1.086a6.254 6.254 0 0 1-.308 1.047 5.03 5.03 0 0 1-.519.967 5.586 5.586 0 0 1-1.524 1.544c-.299.208-.62.382-.957.518a5.864 5.864 0 0 1-1.037.319 5.572 5.572 0 0 1-1.086.11 4.8 4.8 0 0 1-1.076-.11 6.43 6.43 0 0 1-1.036-.319 4.836 4.836 0 0 1-.957-.518 5.557 5.557 0 0 1-2.033-2.511 6.357 6.357 0 0 1-.319-1.047 5.731 5.731 0 0 1-.11-1.086c0-.358.04-.727.11-1.086a5.49 5.49 0 0 1 .319-1.046c.139-.339.309-.668.508-.967a6.15 6.15 0 0 1 .688-.847c.259-.259.538-.488.837-.698a4.88 4.88 0 0 1 .957-.517 5.942 5.942 0 0 1 1.036-.32 5.636 5.636 0 0 1 1.076-.11c.359 0 .728.031 1.086.11.359.07.698.18 1.037.32.338.139.658.308.957.517a5.645 5.645 0 0 1 1.524 1.545c.209.299.369.628.519.967.139.338.238.688.308 1.046.07.359.11.728.11 1.086Zm10.663 3.328v-.01c3.727 0 6.747 3.05 6.747 6.807v7.754a26.54 26.54 0 0 1-12.477 1.404v-4.683a8.18 8.18 0 0 0-5.052-7.544 6.723 6.723 0 0 1 6.009-3.728h4.773Zm3.139-7.813c0 .369-.03.728-.109 1.087a6.26 6.26 0 0 1-.31 1.046 5.711 5.711 0 0 1-1.205 1.814c-.258.257-.538.49-.838.697-.299.2-.627.369-.956.519a4.65 4.65 0 0 1-1.036.318 5.567 5.567 0 0 1-1.077.11 4.806 4.806 0 0 1-1.076-.11 5.517 5.517 0 0 1-1.993-.837 6.128 6.128 0 0 1-.837-.697 5.082 5.082 0 0 1-.687-.847 5.985 5.985 0 0 1-.509-.967 6.276 6.276 0 0 1-.318-1.046 5.67 5.67 0 0 1-.11-1.087 5.625 5.625 0 0 1 .428-2.132 5.542 5.542 0 0 1 1.196-1.813c.259-.259.538-.489.837-.698.299-.2.618-.369.957-.518.334-.14.681-.246 1.036-.319a5.636 5.636 0 0 1 1.076-.11c.359 0 .727.03 1.077.11.359.07.707.179 1.036.319.329.139.657.309.956.518.3.209.579.439.838.698a5.2 5.2 0 0 1 .688.847c.199.308.368.627.517.966a5.786 5.786 0 0 1 .419 2.132ZM26.499 31.821h-.01a8.175 8.175 0 0 0-5.042 7.544v4.683c-4.185.538-8.461.08-12.477-1.405V34.89c0-3.757 3.019-6.796 6.746-6.796h4.774a6.724 6.724 0 0 1 6.009 3.727Zm-2.86-11.551c0 .369-.03.728-.1 1.087a5.468 5.468 0 0 1-.319 1.046c-.138.34-.312.664-.518.967a5.539 5.539 0 0 1-.688.847 6.14 6.14 0 0 1-.837.697c-.298.2-.617.369-.956.519a5.588 5.588 0 0 1-2.122.428c-.369 0-.719-.03-1.077-.11a5.45 5.45 0 0 1-1.037-.318 4.884 4.884 0 0 1-.956-.519 6.202 6.202 0 0 1-.837-.697 5.138 5.138 0 0 1-.688-.847 5.98 5.98 0 0 1-.508-.967 6.375 6.375 0 0 1-.319-1.046 5.748 5.748 0 0 1-.1-1.087c0-.358.031-.727.1-1.085a5.5 5.5 0 0 1 .319-1.047c.139-.339.309-.658.508-.966.21-.299.429-.588.688-.847.259-.26.538-.489.837-.698.299-.2.618-.369.956-.518a5.226 5.226 0 0 1 1.037-.319 5.646 5.646 0 0 1 1.077-.11c.358 0 .727.03 1.086.11.358.069.697.179 1.036.319.337.136.658.31.956.518.299.209.578.438.837.698.26.259.489.538.688.847.21.308.369.627.518.966.14.339.24.688.319 1.047.07.358.1.727.1 1.085Z"/>
  </g>
</svg>
