<svg xmlns="http://www.w3.org/2000/svg" xml:space="preserve" fill-rule="evenodd" stroke-linejoin="round" stroke-miterlimit="2" clip-rule="evenodd" viewBox="0 0 64 64">
  <g id="white" fill="#f3f4f4" fill-rule="nonzero">
    <path d="m38.851 20.133-6.982 15.942s-3.503 6.35-4.325 6.029c-.822-.334 1.024-7.352 1.024-7.352L35.55 18.81c-1.191-1.799-1.465-3.455-1.203-5.016l1.906.763s-.238 3.073 1.43 3.741c1.669.667 3.67-1.692 3.67-1.692l1.919.774s-2.657 2.515-4.421 2.753Z"/>
    <path d="M5.787 11.137A3.885 3.885 0 0 1 4 7.872C4.004 5.75 5.75 4.004 7.872 4a3.885 3.885 0 0 1 3.265 1.787h41.726A3.885 3.885 0 0 1 56.128 4c2.122.004 3.868 1.75 3.872 3.872a3.885 3.885 0 0 1-1.787 3.265v41.726A3.885 3.885 0 0 1 60 56.128c-.004 2.122-1.75 3.868-3.872 3.872a3.885 3.885 0 0 1-3.265-1.787H11.137A3.885 3.885 0 0 1 7.872 60C5.75 59.996 4.004 58.25 4 56.128a3.885 3.885 0 0 1 1.787-3.265V11.137Zm46.576-2.371H11.637a3.872 3.872 0 0 1-2.871 2.871v40.726a3.872 3.872 0 0 1 2.871 2.871h40.726a3.872 3.872 0 0 1 2.871-2.871V11.637a3.872 3.872 0 0 1-2.871-2.871Z"/>
  </g>
  <g id="grey">
    <path fill="#ababab" fill-rule="nonzero" d="M34.359 13.794c-1.358-.596-1.049-1.072-.762-1.787.286-.703.393-1.347 1.787-.762l8.912 3.585c1.537.656 1.049 1.085.762 1.788-.285.703-.368 1.275-1.786.762l-1.919-.774-5.1-2.049-1.906-.763h.012Zm-2.442 22.209 3.216 1.287c3.062 1.275 2.849 1.37 1.859 3.563l-2.633 6.553c-.536 1.334-6.553 6.982-10.794 5.266-4.242-1.727-5.327-10.199-4.79-11.534l2.633-6.553c.977-2.156.739-2.466 3.8-1.275l3.408 1.371-.036.071s-1.858 7.018-1.025 7.352c.823.333 4.326-6.029 4.326-6.029l.036-.072Z"/>
  </g>
</svg>
