<svg xmlns="http://www.w3.org/2000/svg" xmlns:xlink="http://www.w3.org/1999/xlink" width="32" height="32" viewBox="0 0 32 32"><defs><clipPath id="b"><rect width="32" height="32"/></clipPath></defs><g id="a"><path d="M-743-508.737V-517l7.262,3.444v8.269Zm1.315-1.24,4.631,2.189v-4.53l-4.631-2.119Z" transform="translate(752 529.85)" fill="#fff"/><path d="M-735.738-508.737V-517L-743-513.556v8.269Zm-1.315-1.24-4.631,2.189v-4.53l4.631-2.119Z" transform="translate(759.259 529.85)" fill="#fff"/><path d="M-738.1-506.159l-4.025-4.778-6.855,2.139,3.618,6.089Zm-1.671-.3-4.749,2.049-2.759-4.1,4.717-1.521Z" transform="translate(761.622 519.225)" fill="#fff"/><path d="M1109,795.375l3.662-2.447,3.558,5.966Z" transform="translate(-1100 -782.525)" fill="#fff"/></g></svg>