<svg xmlns="http://www.w3.org/2000/svg" xml:space="preserve" fill-rule="evenodd" stroke-linejoin="round" stroke-miterlimit="2" clip-rule="evenodd" viewBox="0 0 64 64">
  <g id="white" fill="#f3f4f4" fill-rule="nonzero">
    <path d="m39.34 19.285-7.48 17.081s-3.754 6.804-4.634 6.46c-.881-.358 1.097-7.877 1.097-7.877l7.481-17.081c-1.276-1.928-1.57-3.702-1.289-5.374l2.042.817s-.255 3.293 1.532 4.008c1.788.715 3.932-1.813 3.932-1.813l2.056.83s-2.847 2.694-4.737 2.949Z"/>
    <path d="M3.915 9.647A4.16 4.16 0 0 1 2 6.149 4.157 4.157 0 0 1 6.149 2a4.16 4.16 0 0 1 3.498 1.915h44.706A4.16 4.16 0 0 1 57.851 2 4.157 4.157 0 0 1 62 6.149a4.16 4.16 0 0 1-1.915 3.498v44.706A4.16 4.16 0 0 1 62 57.851 4.157 4.157 0 0 1 57.851 62a4.16 4.16 0 0 1-3.498-1.915H9.647A4.16 4.16 0 0 1 6.149 62 4.157 4.157 0 0 1 2 57.851a4.16 4.16 0 0 1 1.915-3.498V9.647Zm49.902-2.541H10.183a4.146 4.146 0 0 1-3.077 3.077v43.634a4.146 4.146 0 0 1 3.077 3.077h43.634a4.146 4.146 0 0 1 3.077-3.077V10.183a4.146 4.146 0 0 1-3.077-3.077Z"/>
  </g>
  <g id="grey">
    <path fill="#ababab" fill-rule="nonzero" d="M34.528 12.494c-1.456-.639-1.124-1.149-.817-1.915.306-.753.421-1.443 1.915-.817l9.548 3.842c1.647.702 1.124 1.162.817 1.915-.306.753-.395 1.366-1.914.817l-2.056-.83-5.464-2.195-2.042-.817h.013Zm-2.617 23.795 3.446 1.379c3.281 1.366 3.052 1.468 1.992 3.817l-2.821 7.021c-.575 1.43-7.022 7.481-11.566 5.643-4.545-1.851-5.707-10.928-5.132-12.358l2.821-7.021c1.047-2.31.792-2.642 4.072-1.366l3.651 1.468-.038.077s-1.991 7.519-1.098 7.877c.881.357 4.634-6.46 4.634-6.46l.039-.077Z"/>
  </g>
</svg>
