<?xml version="1.0" encoding="UTF-8"?><svg id="a" xmlns="http://www.w3.org/2000/svg" viewBox="0 0 57.8 57.8"><defs><style>.b{fill:#f3f4f4;}.c{fill:#acabab;}</style></defs><path class="b" d="M57.8,0h-9.63V2.41h7.22v7.22h2.41V0Z"/><path class="b" d="M36.13,55.39h9.63v2.41h-9.63v-2.41Z"/><path class="b" d="M24.08,55.39h9.64v2.41h-9.64v-2.41Z"/><path class="b" d="M12.04,55.39h9.64v2.41H12.04v-2.41Z"/><path class="b" d="M0,36.13H2.41v9.63H0v-9.63Z"/><path class="b" d="M0,57.8H9.64v-2.41H2.41v-7.22H0v9.64Z"/><path class="b" d="M55.39,24.08h2.41v9.63h-2.41v-9.63Z"/><path class="b" d="M0,24.08H2.41v9.63H0v-9.63Z"/><path class="b" d="M57.8,48.16h-2.41v7.22h-7.22v2.41h9.63v-9.64Z"/><path class="b" d="M55.39,12.04h2.41v9.63h-2.41V12.04Z"/><path class="b" d="M55.39,36.13h2.41v9.63h-2.41v-9.63Z"/><path class="b" d="M2.41,2.41h7.22V0H0V9.63H2.41V2.41Z"/><path class="b" d="M24.08,0h9.64V2.41h-9.64V0Z"/><path class="b" d="M12.04,0h9.64V2.41H12.04V0Z"/><path class="b" d="M36.13,0h9.63V2.41h-9.63V0Z"/><path class="b" d="M0,12.04H2.41v9.63H0V12.04Z"/><path class="c" d="M31.21,29.47h-4.79c-3.74,0-6.77,3.06-6.77,6.83v7.78c5.91,2.17,12.4,2.17,18.31,0v-7.78c0-3.77-3.02-6.83-6.76-6.83Z"/><path class="c" d="M34.37,21.63c0,.37-.03,.73-.11,1.09-.07,.36-.18,.71-.31,1.05-.14,.34-.31,.67-.52,.97-.2,.3-.43,.59-.69,.85-.26,.26-.54,.49-.84,.7-.3,.21-.62,.38-.96,.52-.33,.14-.68,.24-1.04,.32-.36,.07-.72,.11-1.09,.11s-.73-.03-1.08-.11-.7-.18-1.04-.32c-.34-.14-.66-.31-.96-.52s-.58-.44-.84-.7c-.26-.26-.49-.55-.69-.85-.2-.3-.37-.63-.51-.97-.14-.34-.24-.69-.32-1.05-.07-.36-.11-.73-.11-1.09s.04-.73,.11-1.09c.07-.36,.18-.71,.32-1.05,.14-.34,.31-.67,.51-.97,.21-.3,.43-.59,.69-.85,.26-.26,.54-.49,.84-.7,.3-.21,.62-.38,.96-.52,.33-.14,.68-.24,1.04-.32,.36-.07,.72-.11,1.08-.11s.73,.03,1.09,.11c.36,.07,.7,.18,1.04,.32,.34,.14,.66,.31,.96,.52,.3,.2,.58,.44,.84,.7,.26,.26,.49,.55,.69,.85,.21,.3,.37,.63,.52,.97,.14,.34,.24,.69,.31,1.05,.07,.36,.11,.73,.11,1.09Z"/><path class="c" d="M45.07,24.97h-4.79c-2.63,0-4.92,1.52-6.03,3.74,2.97,1.22,5.07,4.16,5.07,7.57v4.7c4.19,.54,8.5,.06,12.52-1.41v-7.78c0-3.77-3.03-6.83-6.77-6.83Z"/><path class="c" d="M48.22,17.13c0,.37-.03,.73-.11,1.09-.07,.36-.18,.71-.31,1.05-.14,.34-.31,.66-.52,.97-.2,.3-.43,.59-.69,.85-.26,.26-.54,.49-.84,.7-.3,.2-.63,.37-.96,.52s-.68,.25-1.04,.32c-.36,.07-.72,.11-1.08,.11s-.73-.03-1.08-.11c-.36-.07-.7-.18-1.04-.32-.33-.14-.65-.31-.96-.52-.3-.21-.58-.44-.84-.7-.26-.26-.49-.54-.69-.85-.2-.31-.37-.63-.51-.97-.14-.34-.24-.69-.32-1.05-.07-.36-.11-.73-.11-1.09s.04-.73,.11-1.09c.07-.36,.18-.71,.32-1.05,.14-.34,.31-.66,.51-.97,.2-.3,.43-.59,.69-.85,.26-.26,.54-.49,.84-.7,.3-.2,.62-.37,.96-.52,.34-.14,.69-.25,1.04-.32,.36-.07,.72-.11,1.08-.11s.73,.03,1.08,.11c.36,.07,.71,.18,1.04,.32s.66,.31,.96,.52c.3,.21,.58,.44,.84,.7,.26,.26,.49,.54,.69,.85,.2,.31,.37,.63,.52,.97,.14,.34,.24,.69,.31,1.05,.07,.36,.11,.73,.11,1.09Z"/><path class="c" d="M23.38,28.72c-1.11-2.22-3.4-3.74-6.03-3.74h-4.79c-3.74,0-6.77,3.05-6.77,6.82v7.78c4.03,1.49,8.32,1.95,12.52,1.41v-4.7c0-3.42,2.1-6.35,5.06-7.57Z"/><path class="c" d="M20.51,17.13c0,.37-.03,.73-.1,1.09-.07,.36-.18,.71-.32,1.05-.14,.34-.31,.66-.52,.97-.2,.3-.43,.59-.69,.85-.26,.26-.54,.49-.84,.7-.3,.2-.62,.37-.96,.52-.33,.14-.68,.25-1.04,.32-.36,.07-.72,.11-1.09,.11s-.72-.03-1.08-.11c-.36-.07-.7-.18-1.04-.32-.34-.14-.66-.31-.96-.52-.3-.21-.58-.44-.84-.7-.26-.26-.49-.54-.69-.85-.2-.31-.37-.63-.51-.97s-.24-.69-.32-1.05c-.07-.36-.1-.73-.1-1.09s.03-.73,.1-1.09c.07-.36,.18-.71,.32-1.05,.14-.34,.31-.66,.51-.97,.21-.3,.43-.59,.69-.85,.26-.26,.54-.49,.84-.7,.3-.2,.62-.37,.96-.52,.33-.14,.68-.25,1.04-.32,.36-.07,.72-.11,1.08-.11s.73,.03,1.09,.11c.36,.07,.7,.18,1.04,.32,.34,.14,.66,.31,.96,.52,.3,.21,.58,.44,.84,.7,.26,.26,.49,.54,.69,.85,.21,.31,.37,.63,.52,.97,.14,.34,.24,.69,.32,1.05,.07,.36,.1,.73,.1,1.09Z"/></svg>