<?xml version="1.0" encoding="UTF-8"?><svg id="a" xmlns="http://www.w3.org/2000/svg" viewBox="0 0 47 47"><defs><style>.e{fill:#ababab;}.e,.f{fill-rule:evenodd;}.f{fill:#f3f4f4;}</style></defs><g id="b"><path class="f" d="M29.25,13.54l-5.86,13.38s-2.94,5.33-3.63,5.06c-.69-.28,.86-6.17,.86-6.17l5.86-13.38c-1-1.51-1.23-2.9-1.01-4.21l1.6,.64s-.2,2.58,1.2,3.14c1.4,.56,3.08-1.42,3.08-1.42l1.61,.65s-2.23,2.11-3.71,2.31Z"/></g><g id="c"><path class="f" d="M1.5,5.99c-.9-.58-1.5-1.59-1.5-2.74C0,1.46,1.46,0,3.25,0c1.15,0,2.16,.6,2.74,1.5H41.01c.58-.9,1.59-1.5,2.74-1.5,1.79,0,3.25,1.46,3.25,3.25,0,1.15-.6,2.16-1.5,2.74V41.01c.9,.58,1.5,1.59,1.5,2.74,0,1.79-1.46,3.25-3.25,3.25-1.15,0-2.16-.6-2.74-1.5H5.99c-.58,.9-1.59,1.5-2.74,1.5-1.79,0-3.25-1.46-3.25-3.25,0-1.15,.6-2.16,1.5-2.74V5.99Zm39.09-1.99H6.41c-.28,1.19-1.22,2.13-2.41,2.41V40.59c1.19,.28,2.13,1.22,2.41,2.41H40.59c.28-1.19,1.22-2.13,2.41-2.41V6.41c-1.19-.28-2.13-1.22-2.41-2.41Z"/></g><g id="d"><path class="e" d="M25.48,8.22c-1.14-.5-.88-.9-.64-1.5,.24-.59,.33-1.13,1.5-.64l7.48,3.01c1.29,.55,.88,.91,.64,1.5-.24,.59-.31,1.07-1.5,.64l-1.61-.65-4.28-1.72-1.6-.64Zm-2.05,18.64l2.7,1.08c2.57,1.07,2.39,1.15,1.56,2.99l-2.21,5.5c-.45,1.12-5.5,5.86-9.06,4.42-3.56-1.45-4.47-8.56-4.02-9.68l2.21-5.5c.82-1.81,.62-2.07,3.19-1.07l2.86,1.15-.03,.06s-1.56,5.89-.86,6.17c.69,.28,3.63-5.06,3.63-5.06l.03-.06Z"/></g></svg>